<?xml version="1.0" encoding="iso-8859-1"?>
<!-- Generator: Adobe Illustrator 19.0.0, SVG Export Plug-In . SVG Version: 6.00 Build 0)  -->
<svg xmlns="http://www.w3.org/2000/svg" xmlns:xlink="http://www.w3.org/1999/xlink" version="1.1" id="Layer_1" x="0px" y="0px" viewBox="0 0 512.001 512.001" style="enable-background:new 0 0 512.001 512.001;" xml:space="preserve">
<path style="fill:#C1C1C1;" d="M378.843,32.941v446.126c0,13.578-11.008,24.585-24.585,24.585H44.025  c-13.578,0-24.585-11.007-24.585-24.585V32.941c0-13.589,11.008-24.597,24.585-24.597h310.232  C367.835,8.343,378.843,19.352,378.843,32.941z"/>
<path style="fill:#AAAAAA;" d="M378.843,141.644v337.423c0,13.578-11.008,24.585-24.585,24.585H275.42  c-8.027-10.714-12.791-24.011-12.791-38.409V205.871c0-35.417,28.81-64.227,64.215-64.227h51.999V141.644z"/>
<rect x="19.439" y="86.017" style="fill:#FFDC65;" width="359.405" height="333.794"/>
<g>
	<path style="fill:#FFC846;" d="M378.843,141.644v278.172H262.629V205.871c0-35.417,28.81-64.227,64.215-64.227h51.999V141.644z"/>
	<rect x="19.433" y="391.427" style="fill:#FFC846;" width="359.416" height="28.385"/>
	<rect x="19.433" y="86.017" style="fill:#FFC846;" width="359.416" height="28.385"/>
</g>
<path style="fill:#C1C1C1;" d="M492.567,205.873v259.375c0,21.211-17.193,38.405-38.405,38.405H326.849  c-21.211,0-38.405-17.193-38.405-38.405V205.873c0-21.211,17.193-38.405,38.405-38.405h127.313  C475.373,167.468,492.567,184.661,492.567,205.873z"/>
<rect x="288.448" y="220.184" style="fill:#00ABE0;" width="204.123" height="226.562"/>
<g>
	<rect x="288.448" y="427.479" style="fill:#0B8DCE;" width="204.123" height="19.267"/>
	<rect x="288.448" y="220.184" style="fill:#0B8DCE;" width="204.123" height="19.267"/>
</g>
<path d="M236.963,42.795h-75.64c-4.61,0-8.348,3.737-8.348,8.348s3.738,8.348,8.348,8.348h75.64c4.61,0,8.348-3.737,8.348-8.348  S241.573,42.795,236.963,42.795z"/>
<path d="M311.301,42.795h-10.138c-4.61,0-8.348,3.737-8.348,8.348s3.738,8.348,8.348,8.348h10.138c4.61,0,8.348-3.737,8.348-8.348  S315.912,42.795,311.301,42.795z"/>
<path d="M223.072,454.738h-47.859c-4.61,0-8.348,3.737-8.348,8.348c0,4.611,3.738,8.348,8.348,8.348h47.859  c4.61,0,8.348-3.737,8.348-8.348C231.42,458.474,227.682,454.738,223.072,454.738z"/>
<path d="M429.472,265.599c-3.26-3.259-8.546-3.259-11.805,0l-70.594,70.595c-3.26,3.261-3.26,8.546,0,11.806  c1.629,1.63,3.767,2.444,5.903,2.444s4.273-0.815,5.903-2.444l70.594-70.595C432.733,274.145,432.733,268.86,429.472,265.599z"/>
<path d="M417.667,313.773l-70.594,70.594c-3.26,3.261-3.26,8.546,0,11.806c1.63,1.63,3.767,2.444,5.903,2.444  s4.273-0.815,5.903-2.444l70.594-70.594c3.26-3.261,3.26-8.546,0-11.806C426.213,310.515,420.927,310.515,417.667,313.773z"/>
<path d="M454.16,159.12h-66.961V32.937C387.197,14.775,372.421,0,354.261,0H44.025C25.863,0,11.088,14.775,11.088,32.937v287.509  c0,4.611,3.738,8.348,8.348,8.348s8.348-3.737,8.348-8.348V94.369h342.718v64.751h-43.654c-25.781,0-46.754,20.974-46.754,46.754  v205.591H27.783v-40.757c0-4.611-3.738-8.348-8.348-8.348s-8.348,3.737-8.348,8.348v108.356c0,18.162,14.776,32.938,32.937,32.938  h282.097v-0.019c0.243,0.003,0.482,0.019,0.725,0.019h127.311c25.781,0,46.754-20.974,46.754-46.754v-51.829  c0-4.611-3.738-8.348-8.348-8.348c-4.61,0-8.348,3.737-8.348,8.348v24.981H296.79V228.535h187.428V368.74  c0,4.611,3.738,8.348,8.348,8.348s8.348-3.737,8.348-8.348V205.874C500.913,180.094,479.939,159.12,454.16,159.12z M27.783,77.673  V32.937c0-8.956,7.286-16.242,16.242-16.242H354.26c8.956,0,16.242,7.286,16.242,16.242v44.736H27.783z M27.783,479.063V428.16  h252.31v37.086c0,11.438,4.135,21.924,10.98,30.058H44.025C35.07,495.304,27.783,488.018,27.783,479.063z M484.218,455.094v10.152  c0,16.574-13.485,30.058-30.058,30.058H326.849c-16.574,0-30.058-13.484-30.058-30.058v-10.152H484.218z M296.79,211.84v-5.966  c0-16.574,13.485-30.058,30.058-30.058h127.311c16.574,0,30.058,13.484,30.058,30.058v5.966H296.79z"/>
<path d="M422.164,188.167h-63.322c-4.61,0-8.348,3.737-8.348,8.348c0,4.611,3.738,8.348,8.348,8.348h63.322  c4.61,0,8.348-3.737,8.348-8.348C430.512,191.904,426.775,188.167,422.164,188.167z"/>
<path d="M379.194,484.466h22.617c4.61,0,8.348-3.737,8.348-8.348s-3.738-8.348-8.348-8.348h-22.617c-4.61,0-8.348,3.737-8.348,8.348  S374.584,484.466,379.194,484.466z"/>
<path d="M163.843,266.197c2.136,0,4.273-0.815,5.903-2.444l70.594-70.594c3.26-3.261,3.26-8.546,0-11.806  c-3.26-3.259-8.546-3.259-11.805,0l-70.594,70.594c-3.26,3.261-3.26,8.546,0,11.806C159.57,265.382,161.706,266.197,163.843,266.197  z"/>
<path d="M157.941,311.926c1.63,1.629,3.767,2.444,5.903,2.444s4.273-0.815,5.903-2.444l70.594-70.594  c3.26-3.261,3.26-8.546,0-11.806c-3.26-3.259-8.546-3.259-11.805,0l-70.594,70.594C154.68,303.38,154.68,308.665,157.941,311.926z"/>
<g>
</g>
<g>
</g>
<g>
</g>
<g>
</g>
<g>
</g>
<g>
</g>
<g>
</g>
<g>
</g>
<g>
</g>
<g>
</g>
<g>
</g>
<g>
</g>
<g>
</g>
<g>
</g>
<g>
</g>
</svg>
