<?xml version="1.0" encoding="iso-8859-1"?>
<!-- Generator: Adobe Illustrator 19.0.0, SVG Export Plug-In . SVG Version: 6.00 Build 0)  -->
<svg xmlns="http://www.w3.org/2000/svg" xmlns:xlink="http://www.w3.org/1999/xlink" version="1.1" id="Layer_1" x="0px" y="0px" viewBox="0 0 512 512" style="enable-background:new 0 0 512 512;" xml:space="preserve">
<rect x="8.348" y="10.879" style="fill:#EFEFEF;" width="495.304" height="490.24"/>
<g>
	<rect x="92.271" y="406.194" style="fill:#00ABE0;" width="49.13" height="49.074"/>
	<rect x="92.271" y="317.985" style="fill:#00ABE0;" width="49.13" height="49.074"/>
	<rect x="8.348" y="76.288" style="fill:#00ABE0;" width="495.304" height="197.521"/>
</g>
<g>
	<rect x="8.348" y="76.288" style="fill:#0B8DCE;" width="495.304" height="29.454"/>
	<rect x="8.348" y="244.358" style="fill:#0B8DCE;" width="495.304" height="29.454"/>
</g>
<rect x="8.348" y="10.879" style="fill:#EFEFEF;" width="495.304" height="65.406"/>
<path style="fill:#FF7258;" d="M464.372,51.929H451.68c-4.61,0-8.348-3.736-8.348-8.348s3.738-8.348,8.348-8.348h12.692  c4.61,0,8.348,3.736,8.348,8.348S468.983,51.929,464.372,51.929z"/>
<path style="fill:#FFDC65;" d="M419.293,51.929h-12.692c-4.61,0-8.348-3.736-8.348-8.348s3.738-8.348,8.348-8.348h12.692  c4.61,0,8.348,3.736,8.348,8.348S423.905,51.929,419.293,51.929z"/>
<path style="fill:#72D54A;" d="M373.102,51.929H360.41c-4.61,0-8.348-3.736-8.348-8.348s3.738-8.348,8.348-8.348h12.692  c4.61,0,8.348,3.736,8.348,8.348S377.714,51.929,373.102,51.929z"/>
<path d="M149.746,317.988c0-4.611-3.738-8.348-8.348-8.348H92.27c-4.61,0-8.348,3.736-8.348,8.348v49.07  c0,4.611,3.738,8.348,8.348,8.348h49.128c4.61,0,8.348-3.736,8.348-8.348V317.988z M133.05,358.709h-32.432v-32.374h32.432V358.709z  "/>
<path d="M141.398,397.847H92.27c-4.61,0-8.348,3.736-8.348,8.348v49.069c0,4.611,3.738,8.348,8.348,8.348h49.128  c4.61,0,8.348-3.736,8.348-8.348v-49.069C149.746,401.585,146.008,397.847,141.398,397.847z M133.05,446.916h-32.432v-32.373h32.432  V446.916z"/>
<path d="M182.649,341.645h230.632c4.61,0,8.348-3.736,8.348-8.348c0-4.611-3.738-8.348-8.348-8.348H182.649  c-4.61,0-8.348,3.736-8.348,8.348C174.301,337.909,178.039,341.645,182.649,341.645z"/>
<path d="M182.649,370.473h79.911c4.61,0,8.348-3.736,8.348-8.348c0-4.611-3.738-8.348-8.348-8.348h-79.911  c-4.61,0-8.348,3.736-8.348,8.348C174.301,366.737,178.039,370.473,182.649,370.473z"/>
<path d="M413.281,405.668H182.649c-4.61,0-8.348,3.736-8.348,8.348s3.738,8.348,8.348,8.348h230.632c4.61,0,8.348-3.736,8.348-8.348  S417.891,405.668,413.281,405.668z"/>
<path d="M182.649,434.494c-4.61,0-8.348,3.736-8.348,8.348c0,4.611,3.738,8.348,8.348,8.348h79.911c4.61,0,8.348-3.736,8.348-8.348  c0-4.611-3.738-8.348-8.348-8.348H182.649z"/>
<path d="M512,76.274V10.878c0-4.611-3.738-8.348-8.348-8.348H269.215H8.348C3.738,2.53,0,6.266,0,10.878v65.407v424.836  c0,4.611,3.738,8.348,8.348,8.348h370.29c4.61,0,8.348-3.736,8.348-8.348c0-4.611-3.738-8.348-8.348-8.348H16.696V282.157h478.609  v210.618H429.01c-4.61,0-8.348,3.736-8.348,8.348c0,4.611,3.738,8.348,8.348,8.348h74.642c4.61,0,8.348-3.736,8.348-8.348V76.285  C512,76.281,512,76.278,512,76.274z M495.304,67.937H277.563V19.226h217.741V67.937z M16.696,19.226h244.172v48.711H16.696V19.226z   M16.696,265.461V84.632h252.52h226.089v180.828H16.696z"/>
<path d="M175.883,35.233H47.525c-4.61,0-8.348,3.736-8.348,8.348s3.738,8.348,8.348,8.348h128.358c4.61,0,8.348-3.736,8.348-8.348  S180.493,35.233,175.883,35.233z"/>
<path d="M435.197,145.609v-0.5c0-4.611-3.738-8.348-8.348-8.348h-30.238c-4.61,0-8.348,3.736-8.348,8.348s3.738,8.348,8.348,8.348  h10.586l-45.353,45.354l-69.703-69.703c-1.565-1.565-3.689-2.444-5.902-2.444c-2.214,0-4.338,0.879-5.902,2.444l-67.121,67.122  l-66.445-66.445c-3.259-3.258-8.545-3.26-11.805,0l-73.023,73.022c-3.26,3.261-3.26,8.546,0,11.806c3.26,3.259,8.546,3.259,11.805,0  l67.121-67.121l66.445,66.445c1.565,1.565,3.689,2.444,5.902,2.444c2.214,0,4.338-0.879,5.902-2.444l67.121-67.122l69.703,69.703  c1.565,1.565,3.689,2.444,5.902,2.444c2.214,0,4.338-0.879,5.902-2.444l50.755-50.755v9.582c0,4.611,3.738,8.348,8.348,8.348  s8.348-3.736,8.348-8.348v-29.733C435.197,145.613,435.197,145.611,435.197,145.609z"/>
<g>
</g>
<g>
</g>
<g>
</g>
<g>
</g>
<g>
</g>
<g>
</g>
<g>
</g>
<g>
</g>
<g>
</g>
<g>
</g>
<g>
</g>
<g>
</g>
<g>
</g>
<g>
</g>
<g>
</g>
</svg>
