<?xml version="1.0" encoding="iso-8859-1"?>
<!-- Generator: Adobe Illustrator 19.0.0, SVG Export Plug-In . SVG Version: 6.00 Build 0)  -->
<svg xmlns="http://www.w3.org/2000/svg" xmlns:xlink="http://www.w3.org/1999/xlink" version="1.1" id="Layer_1" x="0px" y="0px" viewBox="0 0 512 512" style="enable-background:new 0 0 512 512;" xml:space="preserve">
<rect x="8.348" y="224.713" style="fill:#00ABE0;" width="122.524" height="254.108"/>
<rect x="8.348" y="439.319" style="fill:#099DD1;" width="122.524" height="39.494"/>
<path style="fill:#FFE5B6;" d="M422.616,223.125v255.692H274.199c-49.143,0-97.811-9.527-143.323-28.043v-204.71l39.653-39.604  c39.008-38.959,70.462-84.801,92.78-135.198l8.235-18.578c5.141-11.622,16.531-19.504,29.25-19.504  c11.463,0,22.44,6.383,20.43,31.869c-2.449,31.174-10.184,83.301-15.813,119.118c-3.228,20.467,12.584,38.959,33.293,38.959H422.616  z"/>
<g>
	<path style="fill:#FCD28D;" d="M422.616,445.949v32.867H274.199c-49.143,0-97.811-9.527-143.323-28.043v-32.867   c45.512,18.518,94.18,28.043,143.323,28.043H422.616z"/>
	<path style="fill:#FCD28D;" d="M422.616,223.125v255.692H312.075c-5.994-9.209-9.478-20.186-9.478-31.967   c0-15.983,6.42-30.48,16.811-41.078c-2.985-7.029-4.629-14.752-4.629-22.842c0-15.983,6.42-30.48,16.811-41.09   c-2.985-7.017-4.629-14.74-4.629-22.83c0-15.983,6.42-30.48,16.811-41.09c-2.985-7.017-4.629-14.74-4.629-22.842   c0-11.78,3.484-22.744,9.465-31.954h74.006V223.125z"/>
</g>
<g>
	<path style="fill:#FFE5B6;" d="M471.691,223.122h-73.783c-17.652,0-31.961,14.309-31.961,31.961l0,0   c0,17.652,14.309,31.961,31.961,31.961h73.783c17.652,0,31.961-14.309,31.961-31.961l0,0   C503.652,237.432,489.343,223.122,471.691,223.122z"/>
	<path style="fill:#FFE5B6;" d="M459.509,287.044h-73.783c-17.652,0-31.961,14.309-31.961,31.961l0,0   c0,17.652,14.309,31.961,31.961,31.961h73.783c17.652,0,31.961-14.309,31.961-31.961l0,0   C491.47,301.355,477.161,287.044,459.509,287.044z"/>
	<path style="fill:#FFE5B6;" d="M447.327,350.968h-73.783c-17.652,0-31.961,14.309-31.961,31.961l0,0   c0,17.652,14.309,31.961,31.961,31.961h73.783c17.652,0,31.961-14.309,31.961-31.961l0,0   C479.288,365.277,464.978,350.968,447.327,350.968z"/>
	<path style="fill:#FFE5B6;" d="M435.144,414.89h-73.783c-17.652,0-31.961,14.309-31.961,31.961s14.309,31.961,31.961,31.961h73.783   c17.652,0,31.961-14.309,31.961-31.961S452.796,414.89,435.144,414.89z"/>
</g>
<g>
	<path style="fill:#FCD28D;" d="M503.651,255.079c0,8.82-3.582,16.811-9.368,22.598c-5.787,5.787-13.778,9.368-22.598,9.368h-73.776   c-17.652,0-31.967-14.314-31.967-31.965c0-4.91,1.109-9.551,3.094-13.705c5.129,10.781,16.129,18.237,28.872,18.237h73.776   c8.82,0,16.811-3.582,22.598-9.356c2.57-2.57,4.703-5.567,6.274-8.881C502.542,245.528,503.651,250.169,503.651,255.079z"/>
	<path style="fill:#FCD28D;" d="M491.469,319.011c0,8.82-3.582,16.811-9.368,22.598s-13.778,9.356-22.598,9.356h-73.776   c-17.652,0-31.967-14.302-31.967-31.954c0-4.91,1.109-9.563,3.094-13.717c5.129,10.781,16.129,18.237,28.872,18.237h73.776   c8.82,0,16.811-3.57,22.598-9.356c2.57-2.571,4.703-5.567,6.274-8.881C490.36,309.448,491.469,314.101,491.469,319.011z"/>
	<path style="fill:#FCD28D;" d="M479.287,382.931c0,8.832-3.582,16.811-9.368,22.598c-5.787,5.774-13.778,9.356-22.598,9.356   h-73.776c-17.652,0-31.967-14.301-31.967-31.954c0-4.91,1.109-9.563,3.094-13.717c5.129,10.793,16.129,18.248,28.872,18.248h73.776   c8.82,0,16.811-3.582,22.598-9.368c2.57-2.558,4.703-5.567,6.274-8.881C478.178,373.368,479.287,378.021,479.287,382.931z"/>
	<path style="fill:#FCD28D;" d="M467.105,446.851c0,8.82-3.582,16.811-9.368,22.598c-5.787,5.787-13.778,9.368-22.598,9.368h-73.776   c-17.652,0-31.967-14.314-31.967-31.967c0-4.91,1.109-9.563,3.094-13.717c5.129,10.793,16.129,18.248,28.872,18.248h73.776   c8.82,0,16.811-3.582,22.598-9.368c2.57-2.57,4.703-5.567,6.274-8.881C465.996,437.287,467.105,441.941,467.105,446.851z"/>
</g>
<path d="M63.249,395.925h7.808c4.61,0,8.348-3.736,8.348-8.348c0-4.611-3.738-8.348-8.348-8.348h-7.808  c-4.61,0-8.348,3.736-8.348,8.348C54.901,392.188,58.638,395.925,63.249,395.925z"/>
<path d="M63.155,434.409h7.808c4.61,0,8.348-3.736,8.348-8.348c0-4.611-3.738-8.348-8.348-8.348h-7.808  c-4.61,0-8.348,3.736-8.348,8.348C54.807,430.673,58.545,434.409,63.155,434.409z"/>
<path d="M512,255.083c0-22.226-18.082-40.309-40.309-40.309h-70.687h-3.094h-59.201c-7.427,0-14.454-3.237-19.279-8.881  s-6.93-13.088-5.776-20.425c5.904-37.502,13.452-88.723,15.893-119.761c1.15-14.618-1.546-25.576-8.011-32.568  c-5.022-5.433-12.196-8.304-20.746-8.304c-15.825,0.001-30.303,9.603-36.883,24.464l-8.23,18.581  c-21.989,49.655-52.621,94.291-91.046,132.669l-25.412,25.381v-1.228c0-4.611-3.738-8.348-8.348-8.348H95.451  c-4.61,0-8.348,3.736-8.348,8.348s3.738,8.348,8.348,8.348h27.074v13.016v204.7v19.701H16.696V233.052H38.6  c4.61,0,8.348-3.736,8.348-8.348s-3.738-8.348-8.348-8.348H8.348c-4.61,0-8.348,3.736-8.348,8.348v254.113  c0,4.611,3.738,8.348,8.348,8.348h122.525c4.61,0,8.348-3.736,8.348-8.348v-15.873c43.297,16.06,88.641,24.216,134.981,24.216h87.16  h27.31h46.473c22.226,0,40.309-18.083,40.309-40.309c0-10.623-4.137-20.292-10.876-27.501c13.618-6.476,23.058-20.365,23.058-36.422  c0-10.622-4.137-20.291-10.876-27.499c13.619-6.477,23.058-20.366,23.058-36.423c0-10.622-4.137-20.292-10.876-27.5  C502.56,285.03,512,271.14,512,255.083z M139.221,445.107V249.529l37.211-37.166c39.887-39.84,71.687-86.176,94.513-137.721  l8.229-18.581c3.908-8.825,12.394-14.527,21.619-14.529c5.766,0,7.814,2.214,8.486,2.942c2.183,2.362,4.585,7.736,3.625,19.926  c-2.399,30.504-9.884,81.263-15.742,118.473c-1.914,12.167,1.576,24.51,9.578,33.87c8.002,9.36,19.654,14.727,31.97,14.727h26.562  c-4.818,6.642-7.67,14.798-7.67,23.613c0,10.623,4.137,20.292,10.876,27.501c-13.619,6.477-23.058,20.366-23.058,36.422  c0,10.623,4.137,20.292,10.876,27.501c-13.619,6.477-23.058,20.366-23.058,36.422c0,10.622,4.137,20.291,10.876,27.5  c-13.618,6.477-23.058,20.366-23.058,36.423c0,8.814,2.852,16.972,7.67,23.613h-54.522  C227.78,470.465,182.398,461.937,139.221,445.107z M435.144,470.465h-47.22h-26.563c-13.02,0-23.613-10.593-23.613-23.613  s10.593-23.614,23.613-23.614h12.182h61.6c13.02,0,23.613,10.594,23.613,23.614S448.165,470.465,435.144,470.465z M447.327,406.542  h-12.182h-61.6c-13.02,0-23.613-10.593-23.613-23.613c0-13.02,10.593-23.613,23.613-23.613h12.182h61.6  c13.02,0,23.613,10.593,23.613,23.613C470.94,395.949,460.347,406.542,447.327,406.542z M459.509,342.62h-12.182h-61.6  c-13.02,0-23.613-10.594-23.613-23.614s10.593-23.613,23.613-23.613h12.182h61.6c13.02,0,23.613,10.593,23.613,23.613  S472.529,342.62,459.509,342.62z M471.691,278.698h-12.182h-61.6c-13.02,0-23.613-10.594-23.613-23.614  c0-13.02,10.593-23.613,23.613-23.613h2.37h71.412c13.02,0,23.613,10.593,23.613,23.613  C495.303,268.104,484.711,278.698,471.691,278.698z"/>
<g>
</g>
<g>
</g>
<g>
</g>
<g>
</g>
<g>
</g>
<g>
</g>
<g>
</g>
<g>
</g>
<g>
</g>
<g>
</g>
<g>
</g>
<g>
</g>
<g>
</g>
<g>
</g>
<g>
</g>
</svg>
